# xmcd
#
# Track frame offsets:
#	182
#	10235
#	25760
#	42260
#	53662
#	66220
#	75260
#	88157
#	97832
#	112080
#	121682
#	132185
#	143135
#	158580
#	167360
#	178235
#	188060
#	193382
#	212285
#
# Disc length: 2980 seconds
#
# Revision: 1
# Processed by: cddbd v1.4PL0 Copyright (c) Steve Scherf et al.
# Submitted via: EasyCDDAExtractor 5.0.6
#
DISCID=ef0ba213
DTITLE=Die Interpreten - Nicht ganz sauber!
DYEAR=1991
DGENRE=Country
TTITLE0=Gams im Gebirg
TTITLE1=Tom Dooly
TTITLE2=Kuckuckswalzer
TTITLE3=Bei meim Deandl sein Fenster
TTITLE4=G´stantzl
TTITLE5=Pinzgauer Perchetentanz
TTITLE6=Zweng an Voglfanga samma aussa ganga
TTITLE7=Nany Polka
TTITLE8=In da Fruah
TTITLE9=Es war im Böhmerwald
TTITLE10=Napoleon reiss aus
TTITLE11=Witshaustür
TTITLE12=Fein sein, Beinanaderbleiben
TTITLE13=Dreikönigspolka
TTITLE14=Massianer
TTITLE15=Der Sumberger Bauer
TTITLE16=Solang der alte Peter
TTITLE17=Joseph Bacher
TTITLE18=Aber s´Deandl hats g´freeut
EXTD=
EXTT0=
EXTT1=
EXTT2=
EXTT3=
EXTT4=
EXTT5=
EXTT6=
EXTT7=
EXTT8=
EXTT9=
EXTT10=
EXTT11=
EXTT12=
EXTT13=
EXTT14=
EXTT15=
EXTT16=
EXTT17=
EXTT18=
PLAYORDER=
